<svg aria-hidden="true" style="position: absolute; width: 0; height: 0; overflow: hidden;" version="1.1" xmlns="http://www.w3.org/2000/svg" xmlns:xlink="http://www.w3.org/1999/xlink">
<defs>
<symbol id="cart" viewBox="0 0 38 32">
<title>cart</title>
<path d="M35.256 8.772l-4.668 10.353c-0.231 0.52-0.728 0.884-1.313 0.922l-0.005 0-13.402 0.885 0.753 2.221h14.626c1.715 0 3.106 1.391 3.106 3.106s-1.391 3.106-3.106 3.106c-1.715 0-3.106-1.391-3.106-3.106v0h-14.494c0 1.715-1.391 3.106-3.106 3.106s-3.106-1.391-3.106-3.106c0-1.715 1.391-3.106 3.106-3.106v0h2.824l-6.005-17.092h-3.558c-0.786-0.089-1.391-0.75-1.391-1.553s0.605-1.464 1.384-1.552l0.007-0.001h4.668c0.678 0 1.242 0.452 1.468 1.054l0.904 2.579h22.984c0.008-0 0.017-0 0.026-0 0.852 0 1.544 0.691 1.544 1.544 0 0.232-0.051 0.452-0.143 0.65l0.004-0.010zM11.915 9.694l2.88 8.207 13.365-0.904 3.275-7.304z"></path>
</symbol>
<symbol id="facebook" viewBox="0 0 17 32">
<title>facebook</title>
<path d="M14.444 2.428v4.546s-3.354-0.331-4.193 0.949c-0.452 0.706-0.188 2.759-0.221 4.237h4.436c-0.375 1.721-0.64 2.891-0.916 4.392h-3.553v14.124h-6.157v-14.069h-2.615v-4.447h2.582c0.143-3.255 0.188-6.477 1.799-8.11 1.821-1.843 3.553-1.622 8.828-1.622z"></path>
</symbol>
<symbol id="glass" viewBox="0 0 32 32">
<title>glass</title>
<path d="M30.080 27.44c0 0.003 0 0.007 0 0.011 0 1.458-1.182 2.64-2.64 2.64-0.732 0-1.394-0.298-1.872-0.778l-0-0-7.728-7.744c-1.535 0.921-3.387 1.465-5.367 1.465-5.832 0-10.56-4.728-10.56-10.56s4.728-10.56 10.56-10.56c5.832 0 10.56 4.728 10.56 10.56 0 1.979-0.545 3.831-1.492 5.415l0.027-0.048 7.744 7.728c0.48 0.48 0.768 1.136 0.768 1.872zM12.48 4.56c-4.374 0-7.92 3.546-7.92 7.92s3.546 7.92 7.92 7.92v0c4.374 0 7.92-3.546 7.92-7.92s-3.546-7.92-7.92-7.92v0z"></path>
</symbol>
<symbol id="instagram" viewBox="0 0 32 32">
<title>instagram</title>
<path d="M27.086 30.629h-21.943c-2.020 0-3.657-1.637-3.657-3.657v0-21.943c0-2.020 1.637-3.657 3.657-3.657v0h21.943c2.020 0 3.657 1.637 3.657 3.657v0 21.943c0 2.020-1.637 3.657-3.657 3.657v0zM16.114 10.331c-2.286 0-4.24 1.349-5.143 3.291l-0.023 0.057c-0.057 0.114-0.114 0.251-0.149 0.377l-0.069 0.171c-0.032 0.087-0.071 0.217-0.105 0.349l-0.009 0.040c0 0.057-0.023 0.114-0.046 0.183l-0.069 0.423-0.023 0.171c-0.022 0.187-0.034 0.403-0.034 0.623 0 3.131 2.538 5.669 5.669 5.669s5.669-2.538 5.669-5.669c0-0.219-0.012-0.436-0.037-0.649l0.002 0.026-0.023-0.171c-0.021-0.174-0.046-0.318-0.075-0.46l0.006 0.037-0.046-0.183c-0.043-0.171-0.083-0.301-0.126-0.429l0.012 0.040-0.069-0.171-0.149-0.377c0-0.011 0-0.034-0.023-0.057-0.92-1.958-2.876-3.29-5.143-3.291h-0zM27.451 6.126c0-0.8-0.651-1.463-1.463-1.463h-2.926c-0.8 0-1.463 0.651-1.463 1.463v2.926c0 0.8 0.651 1.463 1.463 1.463h2.926c0.8 0 1.463-0.651 1.463-1.463zM27.451 13.623h-2.697c0.203 0.711 0.32 1.529 0.32 2.373 0 4.948-4.012 8.96-8.96 8.96s-8.96-4.012-8.96-8.96c0-0.844 0.117-1.662 0.335-2.436l-0.015 0.063h-2.697v12.251c0 0.8 0.651 1.463 1.463 1.463h19.749c0.8 0 1.463-0.651 1.463-1.463z"></path>
</symbol>
<symbol id="pinterest" viewBox="0 0 25 32">
<title>pinterest</title>
<path d="M11.090 19.697l-0.706 2.825c-0.232 0.938-0.441 1.876-0.783 2.726-0.577 1.493-1.341 2.782-2.281 3.919l0.019-0.023c-0.629 0.728-0.497 0.441-0.684 0.397-0.154-0.033-0.166-0.177-0.188-0.375-0.154-1.126-0.055-2.428 0-3.686 0.066-1.434 0.375-2.648 0.662-3.84l1.578-6.797c0.033-0.154 0.132-0.408 0.099-0.486-0.229-0.547-0.396-1.181-0.471-1.843l-0.003-0.033c-0.077-0.772-0.022-1.49 0.154-2.152 0.298-1.17 1.004-2.207 2.097-2.582 0.232-0.082 0.498-0.129 0.777-0.129 0.415 0 0.805 0.105 1.145 0.29l-0.013-0.006c0.474 0.276 0.806 0.728 0.949 1.368 0.166 0.684 0.044 1.49-0.088 2.097-0.287 1.335-0.673 2.35-1.026 3.641-0.177 0.651-0.375 1.313-0.221 1.997 0.154 0.64 0.486 1.081 0.949 1.412 0.463 0.342 1.015 0.53 1.788 0.497 1.357-0.044 2.295-0.905 2.924-1.721 1.036-1.448 1.709-3.221 1.852-5.141l0.002-0.034c0.066-0.673 0.121-1.457 0.077-2.218-0.054-1.307-0.514-2.497-1.257-3.457l0.010 0.014c-0.709-0.87-1.65-1.526-2.728-1.875l-0.041-0.012c-0.783-0.241-1.684-0.38-2.617-0.38-0.537 0-1.064 0.046-1.575 0.135l0.055-0.008c-2.375 0.37-4.343 1.836-5.399 3.855l-0.019 0.040c-0.552 1.048-0.927 2.262-0.927 3.752 0 1.17 0.287 2.063 0.75 2.759 0.143 0.232 0.353 0.419 0.497 0.662 0.21 0.364-0.022 0.905-0.132 1.291-0.11 0.474-0.132 1.114-0.673 1.126-0.221 0-0.519-0.154-0.706-0.265-1.434-0.794-2.317-2.24-2.67-4.127-0.103-0.536-0.162-1.152-0.162-1.782s0.059-1.246 0.172-1.843l-0.010 0.061c0.605-2.912 2.384-5.324 4.808-6.76l0.047-0.026c1.238-0.737 2.691-1.259 4.243-1.472l0.060-0.007c0.552-0.088 1.137-0.11 1.766-0.143 1.843-0.088 3.52 0.331 4.778 0.883 1.291 0.579 2.385 1.38 3.281 2.364l0.007 0.008c0.925 1.005 1.626 2.231 2.015 3.589l0.015 0.063c0.221 0.772 0.441 1.578 0.441 2.527 0 0.938-0.21 1.777-0.342 2.615-0.53 3.112-2.008 5.672-4.237 7.117-1.14 0.766-2.543 1.223-4.052 1.223-0.127 0-0.253-0.003-0.379-0.010l0.018 0.001c-0.809-0.049-1.555-0.28-2.21-0.653l0.025 0.013c-0.596-0.331-1.103-0.75-1.457-1.379z"></path>
</symbol>
<symbol id="twitter" viewBox="0 0 37 32">
<title>twitter</title>
<path d="M24.68 2.133c0.103-0.005 0.223-0.008 0.345-0.008 2.037 0 3.877 0.846 5.187 2.206l0.002 0.002c1.348-0.213 2.559-0.633 3.66-1.23l-0.060 0.030 0.867-0.493c-0.44 1.332-1.226 2.45-2.254 3.283l-0.013 0.010c-0.24 0.187-0.48 0.427-0.773 0.533v0.027c1.52-0.013 2.773-0.693 3.96-1.067-0.66 1.056-1.447 1.957-2.356 2.719l-0.018 0.014-1.093 0.867c0.013 1.613-0.027 3.147-0.32 4.507-1.76 7.867-6.4 13.2-13.733 15.467-2.627 0.827-6.88 1.173-9.893 0.427-1.6-0.378-2.978-0.84-4.299-1.41l0.166 0.064c-0.693-0.307-1.347-0.653-1.973-1.027l-0.613-0.373c0.68 0.013 1.467 0.2 2.24 0.080 0.68-0.107 1.36-0.080 2-0.213 1.587-0.347 2.987-0.8 4.2-1.52 0.587-0.347 1.467-0.747 1.893-1.24-3.042-0.071-5.602-2.061-6.519-4.804l-0.014-0.050c0.693 0.067 2.667 0.253 3.133-0.133-0.868-0.131-1.64-0.461-2.294-0.943l0.014 0.010c-1.995-1.193-3.31-3.342-3.31-5.798 0-0.071 0.001-0.142 0.003-0.212l-0 0.010c0.632 0.336 1.365 0.596 2.139 0.739l0.047 0.007c0.24 0.067 0.693 0.2 0.96 0.093h-0.040c-0.347-0.4-0.933-0.667-1.28-1.12-1.096-1.251-1.764-2.901-1.764-4.706 0-0.582 0.069-1.148 0.2-1.69l-0.010 0.049c0.187-0.68 0.467-1.28 0.76-1.827l0.027 0.013c0.133 0.293 0.44 0.493 0.64 0.733 0.6 0.747 1.333 1.413 2.080 2 2.385 1.951 5.266 3.391 8.422 4.107l0.138 0.026c0.933 0.227 2.027 0.4 3.147 0.4-0.32-0.907-0.213-2.4 0.027-3.28 0.662-2.661 2.802-4.685 5.478-5.167l0.042-0.006 0.853-0.107z"></path>
</symbol>
</defs>
</svg>
